<svg xmlns="http://www.w3.org/2000/svg" width="19.02" height="28" viewBox="0 0 19.02 28"><defs><style>.a{fill:#fff;}</style></defs><g transform="translate(-6.49 -2)"><path class="a" d="M15.22,23.41a1.082,1.082,0,0,0,.36.24c.01,0,.01,0,.02.01a1.1,1.1,0,0,0,.4.08,1.057,1.057,0,0,0,.4-.08c.01,0,.01,0,.02-.01a1.135,1.135,0,0,0,.36-.24l6.55-6.55a1.1,1.1,0,0,0-1.56-1.56l-4.66,4.66V3.11a1.11,1.11,0,0,0-2.22,0V19.96L10.23,15.3a1.1,1.1,0,0,0-1.56,1.56Z"/><path class="a" d="M24.4,27.79H7.6A1.105,1.105,0,1,0,7.6,30H24.4a1.105,1.105,0,1,0,0-2.21Z"/></g></svg>