<svg xmlns="http://www.w3.org/2000/svg" width="24" height="24" viewBox="0 0 24 24"><defs><style>.a{fill:#fff;}</style></defs><g transform="translate(-21.94 -23)"><path class="a" d="M33.937,35.889A4.8,4.8,0,0,0,38.64,31V25.667h2.993l1.591,15.284a4.261,4.261,0,0,1,2.565.062L44.2,25.382A2.6,2.6,0,0,0,41.633,23H26.241a2.6,2.6,0,0,0-2.565,2.382l-1.71,16.391a4.846,4.846,0,0,0,1.148,3.67A4.469,4.469,0,0,0,26.51,47H40.193a4.717,4.717,0,0,1-.128-2.667H26.51a1.946,1.946,0,0,1-1.479-.678,2.11,2.11,0,0,1-.5-1.6l1.71-16.391h2.993V31A4.8,4.8,0,0,0,33.937,35.889ZM36.075,31A2.139,2.139,0,1,1,31.8,31V25.667h4.276Z"/><path class="a" d="M72.88,73.759A1.88,1.88,0,1,0,71,71.88,1.88,1.88,0,0,0,72.88,73.759Z" transform="translate(-28.82 -26.759)"/></g></svg>